<mxfile host="app.diagrams.net" agent="Mozilla/5.0 (Windows NT 10.0; Win64; x64; rv:138.0) Gecko/20100101 Firefox/138.0" version="27.1.1">
  <diagram name="Page-1" id="b8BE7KBkcRRF1lKd-tSi">
    <mxGraphModel dx="1425" dy="766" grid="1" gridSize="10" guides="1" tooltips="1" connect="1" arrows="1" fold="1" page="1" pageScale="1" pageWidth="850" pageHeight="1100" math="0" shadow="0">
      <root>
        <mxCell id="0" />
        <mxCell id="1" parent="0" />
        <mxCell id="ETMz8ZjlzkhiZyX84apP-3" value="&lt;span data-start=&quot;796&quot; data-end=&quot;815&quot;&gt;&lt;b&gt;SwissAXA System&lt;/b&gt;&lt;/span&gt;" style="rounded=0;whiteSpace=wrap;html=1;verticalAlign=top;fontSize=14;fontStyle=2" vertex="1" parent="1">
          <mxGeometry x="280" y="280" width="280" height="520" as="geometry" />
        </mxCell>
        <mxCell id="ETMz8ZjlzkhiZyX84apP-4" value="Customer" style="shape=umlActor;verticalLabelPosition=bottom;verticalAlign=top;html=1;" vertex="1" parent="1">
          <mxGeometry x="170" y="500" width="30" height="60" as="geometry" />
        </mxCell>
        <mxCell id="ETMz8ZjlzkhiZyX84apP-5" value="Administrator" style="shape=umlActor;verticalLabelPosition=bottom;verticalAlign=top;html=1;" vertex="1" parent="1">
          <mxGeometry x="640" y="500" width="30" height="60" as="geometry" />
        </mxCell>
        <mxCell id="ETMz8ZjlzkhiZyX84apP-13" value="" style="ellipse;whiteSpace=wrap;html=1;" vertex="1" parent="1">
          <mxGeometry x="290" y="350" width="120" height="80" as="geometry" />
        </mxCell>
        <mxCell id="ETMz8ZjlzkhiZyX84apP-14" value="" style="ellipse;whiteSpace=wrap;html=1;" vertex="1" parent="1">
          <mxGeometry x="430" y="350" width="120" height="80" as="geometry" />
        </mxCell>
        <mxCell id="ETMz8ZjlzkhiZyX84apP-15" value="" style="ellipse;whiteSpace=wrap;html=1;" vertex="1" parent="1">
          <mxGeometry x="290" y="440" width="120" height="80" as="geometry" />
        </mxCell>
        <mxCell id="ETMz8ZjlzkhiZyX84apP-16" value="" style="ellipse;whiteSpace=wrap;html=1;" vertex="1" parent="1">
          <mxGeometry x="430" y="440" width="120" height="80" as="geometry" />
        </mxCell>
        <mxCell id="ETMz8ZjlzkhiZyX84apP-17" value="" style="ellipse;whiteSpace=wrap;html=1;" vertex="1" parent="1">
          <mxGeometry x="290" y="530" width="120" height="80" as="geometry" />
        </mxCell>
        <mxCell id="ETMz8ZjlzkhiZyX84apP-18" value="" style="ellipse;whiteSpace=wrap;html=1;" vertex="1" parent="1">
          <mxGeometry x="430" y="530" width="120" height="80" as="geometry" />
        </mxCell>
        <mxCell id="ETMz8ZjlzkhiZyX84apP-21" value="" style="ellipse;whiteSpace=wrap;html=1;" vertex="1" parent="1">
          <mxGeometry x="290" y="710" width="120" height="80" as="geometry" />
        </mxCell>
        <mxCell id="ETMz8ZjlzkhiZyX84apP-22" value="" style="ellipse;whiteSpace=wrap;html=1;" vertex="1" parent="1">
          <mxGeometry x="430" y="710" width="120" height="80" as="geometry" />
        </mxCell>
        <mxCell id="ETMz8ZjlzkhiZyX84apP-23" value="" style="ellipse;whiteSpace=wrap;html=1;" vertex="1" parent="1">
          <mxGeometry x="290" y="620" width="120" height="80" as="geometry" />
        </mxCell>
        <mxCell id="ETMz8ZjlzkhiZyX84apP-24" value="" style="ellipse;whiteSpace=wrap;html=1;" vertex="1" parent="1">
          <mxGeometry x="430" y="620" width="120" height="80" as="geometry" />
        </mxCell>
      </root>
    </mxGraphModel>
  </diagram>
</mxfile>
